<svg width="25" height="24" viewBox="0 0 25 24" fill="none" xmlns="http://www.w3.org/2000/svg">
<path d="M17.4485 4.31392V2.82448C17.4485 2.43302 17.0943 2.1084 16.6672 2.1084C16.2401 2.1084 15.886 2.43302 15.886 2.82448V4.25663H9.11515V2.82448C9.11515 2.43302 8.76098 2.1084 8.3339 2.1084C7.90681 2.1084 7.55265 2.43302 7.55265 2.82448V4.31392C4.74015 4.55261 3.37556 6.08979 3.16723 8.3717C3.1464 8.64858 3.3964 8.87772 3.68806 8.87772H21.3131C21.6151 8.87772 21.8651 8.63903 21.8339 8.3717C21.6256 6.08979 20.261 4.55261 17.4485 4.31392Z" fill="#35AFF4"/>
<path d="M20.8333 10.3096H4.16667C3.59375 10.3096 3.125 10.7392 3.125 11.2643V17.1457C3.125 20.01 4.6875 21.9196 8.33333 21.9196H16.6667C20.3125 21.9196 21.875 20.01 21.875 17.1457V11.2643C21.875 10.7392 21.4062 10.3096 20.8333 10.3096ZM9.59375 18.301C9.48958 18.3869 9.375 18.4538 9.25 18.5015C9.125 18.5492 8.98958 18.5779 8.85417 18.5779C8.71875 18.5779 8.58333 18.5492 8.45833 18.5015C8.33333 18.4538 8.21875 18.3869 8.11458 18.301C7.92708 18.1196 7.8125 17.8714 7.8125 17.6231C7.8125 17.3749 7.92708 17.1266 8.11458 16.9452C8.21875 16.8593 8.33333 16.7925 8.45833 16.7447C8.70833 16.6492 9 16.6492 9.25 16.7447C9.375 16.7925 9.48958 16.8593 9.59375 16.9452C9.78125 17.1266 9.89583 17.3749 9.89583 17.6231C9.89583 17.8714 9.78125 18.1196 9.59375 18.301ZM9.8125 14.6442C9.76042 14.7588 9.6875 14.8638 9.59375 14.9593C9.48958 15.0452 9.375 15.1121 9.25 15.1598C9.125 15.2075 8.98958 15.2362 8.85417 15.2362C8.71875 15.2362 8.58333 15.2075 8.45833 15.1598C8.33333 15.1121 8.21875 15.0452 8.11458 14.9593C8.02083 14.8638 7.94792 14.7588 7.89583 14.6442C7.84375 14.5297 7.8125 14.4055 7.8125 14.2814C7.8125 14.1573 7.84375 14.0332 7.89583 13.9186C7.94792 13.804 8.02083 13.699 8.11458 13.6035C8.21875 13.5176 8.33333 13.4508 8.45833 13.403C8.70833 13.3076 9 13.3076 9.25 13.403C9.375 13.4508 9.48958 13.5176 9.59375 13.6035C9.6875 13.699 9.76042 13.804 9.8125 13.9186C9.86458 14.0332 9.89583 14.1573 9.89583 14.2814C9.89583 14.4055 9.86458 14.5297 9.8125 14.6442ZM13.2396 14.9593C13.1354 15.0452 13.0208 15.1121 12.8958 15.1598C12.7708 15.2075 12.6354 15.2362 12.5 15.2362C12.3646 15.2362 12.2292 15.2075 12.1042 15.1598C11.9792 15.1121 11.8646 15.0452 11.7604 14.9593C11.5729 14.7779 11.4583 14.5297 11.4583 14.2814C11.4583 14.0332 11.5729 13.7849 11.7604 13.6035C11.8646 13.5176 11.9792 13.4508 12.1042 13.403C12.3542 13.298 12.6458 13.298 12.8958 13.403C13.0208 13.4508 13.1354 13.5176 13.2396 13.6035C13.4271 13.7849 13.5417 14.0332 13.5417 14.2814C13.5417 14.5297 13.4271 14.7779 13.2396 14.9593Z" fill="#35AFF4"/>
</svg>
