<svg width="25" height="25" viewBox="0 0 25 25" fill="none" xmlns="http://www.w3.org/2000/svg">
<path d="M7.83334 3.91579C8.01423 3.817 8.20653 3.96881 8.20653 4.17491V17.8678C8.20653 18.091 8.05424 18.2798 7.85675 18.3837C7.8489 18.3879 7.84109 18.392 7.83334 18.3963L5.46306 19.7494C3.80891 20.6986 2.44727 19.911 2.44727 17.9924V8.16703C2.44727 7.53086 2.90115 6.74322 3.46598 6.42008L7.83334 3.91579Z" fill="#35AFF4"/>
<path d="M14.9891 6.47402C15.1593 6.55841 15.267 6.73199 15.267 6.92198V20.2146C15.267 20.5832 14.8817 20.8251 14.5498 20.6649L10.2545 18.5931C10.0816 18.5097 9.97168 18.3347 9.97168 18.1428V4.79232C9.97168 4.42136 10.3614 4.17957 10.6938 4.34436L14.9891 6.47402Z" fill="#35AFF4"/>
<path d="M22.3275 6.86453V16.6899C22.3275 17.326 21.8736 18.1137 21.3088 18.4368L17.7811 20.4609C17.4477 20.6522 17.0322 20.4116 17.0322 20.0273V6.70028C17.0322 6.52085 17.1284 6.35518 17.2841 6.26616L19.3117 5.10748C20.9659 4.15828 22.3275 4.94592 22.3275 6.86453Z" fill="#35AFF4"/>
</svg>
