<svg width="34" height="34" viewBox="0 0 34 34" fill="none" xmlns="http://www.w3.org/2000/svg">
<path fill-rule="evenodd" clip-rule="evenodd" d="M5.593 8.5H28.4056C29.1451 8.5 29.75 9.10492 29.75 9.84442V9.98892C29.75 10.7284 29.1451 11.3333 28.4056 11.3333H5.593C4.8535 11.3333 4.25 10.7284 4.25 9.98892V9.84442C4.25 9.10492 4.8535 8.5 5.593 8.5ZM28.4056 15.5833H5.593C4.8535 15.5833 4.25 16.1882 4.25 16.9277V17.0722C4.25 17.8117 4.8535 18.4167 5.593 18.4167H28.4056C29.1451 18.4167 29.75 17.8117 29.75 17.0722V16.9277C29.75 16.1882 29.1451 15.5833 28.4056 15.5833ZM28.4056 22.6667H5.593C4.8535 22.6667 4.25 23.2716 4.25 24.0111V24.1556C4.25 24.8951 4.8535 25.5 5.593 25.5H28.4056C29.1451 25.5 29.75 24.8951 29.75 24.1556V24.0111C29.75 23.2716 29.1451 22.6667 28.4056 22.6667Z" fill="#231F20"/>
<mask id="mask0_259_168" style="mask-type:luminance" maskUnits="userSpaceOnUse" x="4" y="8" width="26" height="18">
<path fill-rule="evenodd" clip-rule="evenodd" d="M5.593 8.5H28.4056C29.1451 8.5 29.75 9.10492 29.75 9.84442V9.98892C29.75 10.7284 29.1451 11.3333 28.4056 11.3333H5.593C4.8535 11.3333 4.25 10.7284 4.25 9.98892V9.84442C4.25 9.10492 4.8535 8.5 5.593 8.5ZM28.4056 15.5833H5.593C4.8535 15.5833 4.25 16.1882 4.25 16.9277V17.0722C4.25 17.8117 4.8535 18.4167 5.593 18.4167H28.4056C29.1451 18.4167 29.75 17.8117 29.75 17.0722V16.9277C29.75 16.1882 29.1451 15.5833 28.4056 15.5833ZM28.4056 22.6667H5.593C4.8535 22.6667 4.25 23.2716 4.25 24.0111V24.1556C4.25 24.8951 4.8535 25.5 5.593 25.5H28.4056C29.1451 25.5 29.75 24.8951 29.75 24.1556V24.0111C29.75 23.2716 29.1451 22.6667 28.4056 22.6667Z" fill="white"/>
</mask>
<g mask="url(#mask0_259_168)">
<rect width="34" height="34" fill="#0D1C2E"/>
</g>
</svg>
