<svg width="17" height="17" viewBox="0 0 17 17" fill="none" xmlns="http://www.w3.org/2000/svg">
<path d="M7.68356 1.21548C7.97473 0.524528 8.96643 0.524529 9.2576 1.21548L10.9761 5.29359C11.0989 5.58488 11.3765 5.7839 11.695 5.80911L16.1557 6.16207C16.9114 6.22188 17.2179 7.15277 16.642 7.63961L13.2436 10.5129C13.0008 10.7182 12.8948 11.0403 12.9689 11.3471L14.0072 15.6433C14.1831 16.3712 13.3809 16.9466 12.7338 16.5566L8.91489 14.2542C8.64211 14.0898 8.29905 14.0898 8.02628 14.2542L4.20733 16.5566C3.56028 16.9466 2.75798 16.3712 2.9339 15.6433L3.97221 11.3471C4.04638 11.0403 3.94036 10.7182 3.69762 10.5129L0.299064 7.63961C-0.276749 7.15277 0.0297045 6.22188 0.785469 6.16207L5.24613 5.80911C5.56475 5.7839 5.84229 5.58488 5.96504 5.29359L7.68356 1.21548Z" fill="#F9B811"/>
</svg>
